PathFileType	4	(X/Y/Z)	29_1_14_p1_0-292_filt_butterworth.trc
DataRate	CameraRate	NumFrames	NumMarkers	Units	OrigDataRate	OrigDataStartFrame	OrigNumFrames
60.0	60.0	6	27	m	60.0	109	292
Frame#	Time	RHip			RKnee			RAnkle			RBigToe			RSmallToe			RHeel			LHip			LKnee			LAnkle			LBigToe			LSmallToe			LHeel			Neck			Head			Nose			RShoulder			RElbow			RWrist			RThumb			RIndex			RPinky			LShoulder			LElbow			LWrist			LThumb			LIndex			LPinky			
		X1	Y1	Z1	X2	Y2	Z2	X3	Y3	Z3	X4	Y4	Z4	X5	Y5	Z5	X6	Y6	Z6	X7	Y7	Z7	X8	Y8	Z8	X9	Y9	Z9	X10	Y10	Z10	X11	Y11	Z11	X12	Y12	Z12	X13	Y13	Z13	X14	Y14	Z14	X15	Y15	Z15	X16	Y16	Z16	X17	Y17	Z17	X18	Y18	Z18	X19	Y19	Z19	X20	Y20	Z20	X21	Y21	Z21	X22	Y22	Z22	X23	Y23	Z23	X24	Y24	Z24	X25	Y25	Z25	X26	Y26	Z26	X27	Y27	Z27	
109	1.8166666666666669	0.3516400055286417	0.5892815203902583	0.9155340442458616	0.3274010302884198	0.6897692083434159	1.3417016767114807	0.3011834221316337	0.7928392778277583	1.7401126914721488	0.28982024384381727	0.6166953053861346	1.7699996676860643	0.3497472063506575	0.6203894199320675	1.7599052779115145	0.2737734958227967	0.8749682295623429	1.796997871674987	0.1367268477818695	0.5964415854080307	0.9198925746194486	0.11625009683773882	0.6716271284997642	1.309545580114119	0.09928873427551937	0.7797546778092852	1.7260079472592944	0.1203392620719448	0.5623452229137753	1.7277511975776136	0.05879965180195094	0.6415578778380417	1.740503086645464	0.12335192712270487	0.8337635883507808	1.7623417869881168	0.2823127807131585	0.4794003933587357	0.3149341052296103	0.31393032196148574	0.39881066933903464	0.06655620485572344	0.2825642421550516	0.32576992073709676	0.20249795114863736	0.4213187886315471	0.4766073393864286	0.4313579058579209	0.44980057412759056	0.4699999297666203	0.6818808283009927	0.3189813182398656	0.36502868557567913	0.8616081686298874	0.2272614565176736	0.3218561048064121	0.9184644184563814	0.2220221410011987	0.367273481032376	0.9379046525266515	0.23357206124319604	0.44171481571754534	0.9737218085810471	0.12786624370646765	0.5016397612471508	0.4185616242683607	0.08386333714224889	0.45332624903715485	0.6658739828037377	0.1832594911625123	0.3704291004851744	0.8429221742768447	0.27448520103278484	0.3582338266141248	0.9040824797307647	0.27491636100119476	0.3842669077086026	0.9264826861142481	0.23212865279345407	0.4190902772646062	0.9636270415168872
110	1.8333333333333333	0.3516017538973232	0.5892898934014067	0.9143948297608399	0.3273563029121559	0.6894555634304558	1.3425181313366945	0.3011993762027922	0.7928397508996726	1.7401317827254046	0.2903358678425697	0.6152063779746162	1.7693488532373505	0.35097178618229274	0.6213910950123767	1.759772481916907	0.27448342765770906	0.8759397550412278	1.797551374868578	0.13672913057358368	0.596420465308832	0.9198087345401254	0.11597676622363742	0.6718600300905724	1.310703427329866	0.09930039093381365	0.779765515244154	1.7258990335337452	0.1202270662954873	0.5629077702411585	1.7289496017081074	0.059479114487620874	0.6393714588450635	1.7410788130286623	0.12323478182173783	0.8334492164652861	1.7622317482394056	0.282400903842992	0.47779281294851317	0.31469554521053755	0.3139326141164074	0.39881524021948916	0.06692693040178617	0.28262850823969526	0.3259014269443185	0.20246003796056333	0.42027087819091546	0.472702477563266	0.43106881376593065	0.45127917729606964	0.47024355464966533	0.6819157171381253	0.3188833965887002	0.3650301229143247	0.8614115028305233	0.2273908914739956	0.3217953696128109	0.9182439980127411	0.2224441984952022	0.36750096663316834	0.9380539975190956	0.23360737595236397	0.4420595492004968	0.9735270416234674	0.12918727728632837	0.5023511809233046	0.41735801563004643	0.08391491967819771	0.45323149662953194	0.6646298608255428	0.18265104499447363	0.37032630775655484	0.8429736536374235	0.27507057833930043	0.35491525642520966	0.9032300765207402	0.27460293270995356	0.3839465844498366	0.9264525620440305	0.2326615263271935	0.42219960303886334	0.9645152935204192
111	1.85	0.3507577130629913	0.5891226471010379	0.9128287096789596	0.32720427830468624	0.6888146240382859	1.3414761745880526	0.3012060287408721	0.792827591475567	1.74017312911221	0.29167903273546447	0.6110777301384984	1.7675593406388832	0.35212848451456646	0.6182039829276526	1.7577894507716871	0.275155152557331	0.8783768167371487	1.8004180851335099	0.13673302307309446	0.5964198264839716	0.9197376991380075	0.11571565168147727	0.6720196833183764	1.3117370479818693	0.09930599612704963	0.779776386547173	1.7258584176642287	0.12014304080713539	0.5635232235499511	1.7302537379486072	0.061170988766980836	0.6351439879557077	1.740861526144494	0.12292172397972034	0.8338106970834223	1.7623380600803786	0.2823508644057875	0.4778682276724261	0.3146924086387721	0.3139820232036826	0.3987531934272413	0.06695053822037071	0.282641373849648	0.32604723824859816	0.20240651418498637	0.4195184940683271	0.4698894626432192	0.4314736180282182	0.4524323354607609	0.47042308471822286	0.6819365300979083	0.3191915329902524	0.36481483590668107	0.8597869951984444	0.22758033356277257	0.3217875021924908	0.9175659232006488	0.22351280814196883	0.3678635024529438	0.9385530305202313	0.23367019345317858	0.4422836547952347	0.973023477711483	0.13028843139615165	0.5029528253203022	0.41645431035307506	0.08390690248277671	0.45319832550315214	0.6637307663330373	0.1815173971417504	0.37015456631909815	0.8429928967523599	0.27655978737598563	0.35062216739758767	0.9023516230697677	0.27623255331429125	0.3824974366408056	0.9259238349743237	0.23309579939502054	0.4233462308051554	0.964349406392485
112	1.8666666666666667	0.3495146296007235	0.5888588110225114	0.9119042065497219	0.32698089651821693	0.6880155071563301	1.3396118697314656	0.3012069726874883	0.7928118249703546	1.7402240432178215	0.2934817753304783	0.6054145719687875	1.765108832502753	0.353282402609331	0.6127322564077101	1.7552866458447727	0.27541969607327904	0.880748307275027	1.8043260869241613	0.13673504215311683	0.5964427683177513	0.9197093828941054	0.11563500391018261	0.6719490888263048	1.3117968078712021	0.09931559972148836	0.7797538337023553	1.725868701694961	0.12018907383794619	0.5638387293602297	1.7308967176655414	0.06339229772985784	0.632568115638897	1.7400626993498962	0.12269889633737005	0.8342284030309844	1.762393479708817	0.2821965671048727	0.47953539269347917	0.31468920226989466	0.3140523767031002	0.398657863435556	0.06658324057786985	0.282590372743046	0.32620680035125926	0.20234584611261272	0.41928729883097604	0.4689696776315918	0.4324823914012049	0.45290841190656683	0.4704932817896469	0.6819435184062017	0.3196126416223954	0.364585102573691	0.8581110587458244	0.22779527445150966	0.32178187787954055	0.9166311288040766	0.22503077087071996	0.3684058233532309	0.9394274138180396	0.23370123844753768	0.4423722633527821	0.9727656840027963	0.13074503369353968	0.5032223443507043	0.41609751433187403	0.08388107260663717	0.4531782909292557	0.6634091156014547	0.18041442138326094	0.37025946179573904	0.8430073681270538	0.27798703385488926	0.3472750369808395	0.9017340703675227	0.2790392462443895	0.37980110017047214	0.9249106792811125	0.23374902949094126	0.422872424835516	0.9629511099013648
113	1.8833333333333333	0.34850786991966926	0.5886584136608699	0.9116458089275676	0.32675631469188454	0.6875156521624612	1.3381429447568487	0.30120934516380726	0.7928028298368927	1.7402658621113807	0.2947608857090598	0.6013123101459983	1.763339677784181	0.35452126906382536	0.609605253814888	1.754085047945333	0.2751684481725082	0.8811237031792113	1.8065790847812457	0.1367319175513343	0.5964906891124548	0.9197158132276466	0.11568066319683579	0.6714823744468628	1.3106639777025322	0.09932348841850776	0.7797039535697999	1.7259237411221051	0.12034556186606643	0.5638920783627538	1.7309866810096652	0.06508251861712021	0.6321674981764198	1.7383424741059623	0.1225985647059933	0.8344570799106006	1.7624282953962422	0.2819874356225832	0.483068005748083	0.31456423887249124	0.3141082445525256	0.39858040575607023	0.06621369514686	0.28250858041444465	0.32637987028285953	0.20233624365674677	0.4193627775160575	0.4692192530844844	0.4333537444208109	0.4529334089651572	0.47047777405889707	0.6819479969873156	0.3197749518336619	0.36455633951631133	0.8576635248172539	0.22793995866526215	0.32177403507836727	0.9159086418560977	0.2263767522324141	0.3688835845677027	0.9401435064379544	0.23369663981140287	0.44241206892143864	0.9729251342627728	0.13076225044470935	0.5032706387528907	0.4160869950352583	0.08385761724989933	0.453160486617058	0.6634280526960513	0.17972170829803033	0.37151738197669854	0.8431480809799932	0.2787584071159215	0.345656437988954	0.9014459462160427	0.281687283253582	0.3775371704134334	0.923645149615292	0.23475732808459196	0.4208856221769576	0.9611237566017876
114	1.9	0.3481298266837612	0.588670556824986	0.9116491665043547	0.32657572155206693	0.6874873350564175	1.3375432919300156	0.3012140389914905	0.7928006817279638	1.7402984990726484	0.2947653231061196	0.6012160972268267	1.7633101084649907	0.35532822978065864	0.6117142246184223	1.755027620618152	0.2746072426692577	0.8793232305049316	1.8067719876297557	0.13672039471989608	0.5965379408383686	0.9197352652631117	0.11567552430882962	0.6706821551748444	1.3088787368492873	0.09931130993854008	0.7796696917648869	1.7260131691913994	0.12048980969187552	0.5638486667564659	1.7308932875767218	0.06574982348534011	0.6328734842784751	1.736178212023516	0.12257006653272093	0.8344578894489147	1.7628219456204393	0.28178176740272165	0.48758597038924023	0.31435230936618885	0.31413512240436386	0.39854455838138	0.06607243930892616	0.2824347946371698	0.326520476124729	0.2025283612067152	0.4194973695309757	0.46963820097737347	0.43340576009854315	0.45286244548497345	0.4704129043073393	0.6819630858621325	0.31964551150633697	0.36473214408574606	0.8583946069684696	0.2279694584454799	0.32178414771216146	0.9156031274873973	0.22714184080326652	0.36906288583480046	0.94018931077871	0.23369327223626507	0.44240480952704125	0.9731907396627065	0.13066126660361704	0.5032584447806002	0.41615872986772007	0.0838404287301573	0.45314908139283816	0.6635079113466351	0.17917246013064075	0.3746119219926538	0.8435182043083329	0.2789173187162821	0.34520983188665044	0.9014589396740447	0.2832394455800707	0.37769342685430846	0.9224734121976925	0.23562224549671784	0.4172836954740063	0.9599439113468475
